Coordinates
version=1
nRows=9
nColumns=63
inDegrees=yes

Units are S.I. units (second, meters, Newtons, ...)
If the header above contains a line with 'inDegrees', this indicates whether rotational values are in degrees (yes) or radians (no).

endheader
time	pelvis_tilt	pelvis_list	pelvis_rotation	pelvis_tx	pelvis_ty	pelvis_tz	hip_flexion_r	hip_adduction_r	hip_rotation_r	knee_angle_r	knee_angle_r_beta	ankle_angle_r	subtalar_angle_r	mtp_angle_r	hip_flexion_l	hip_adduction_l	hip_rotation_l	knee_angle_l	knee_angle_l_beta	ankle_angle_l	subtalar_angle_l	mtp_angle_l	L5_S1_Flex_Ext	L5_S1_Lat_Bending	L5_S1_axial_rotation	L4_L5_Flex_Ext	L4_L5_Lat_Bending	L4_L5_axial_rotation	L3_L4_Flex_Ext	L3_L4_Lat_Bending	L3_L4_axial_rotation	L2_L3_Flex_Ext	L2_L3_Lat_Bending	L2_L3_axial_rotation	L1_L2_Flex_Ext	L1_L2_Lat_Bending	L1_L2_axial_rotation	L1_T12_Flex_Ext	L1_T12_Lat_Bending	L1_T12_axial_rotation	Abs_r3	Abs_r2	Abs_r1	Abs_t1	Abs_t2	neck_flexion	neck_bending	neck_rotation	arm_flex_r	arm_add_r	arm_rot_r	elbow_flex_r	pro_sup_r	wrist_flex_r	wrist_dev_r	arm_flex_l	arm_add_l	arm_rot_l	elbow_flex_l	pro_sup_l	wrist_flex_l	wrist_dev_l
      0.01666667	     -1.80132792	      4.55168399	    -70.46932214	      0.04030187	      0.98116848	     -1.36896438	      4.22428582	      4.22412341	    -38.13797746	     25.63459439	      0.44740807	     27.69350457	    -12.11168114	      0.00000000	     30.77894486	     16.91180170	     33.97310526	     18.67600865	      0.32595784	    -12.07053970	    -18.57314858	      0.00000000	     -0.01820066	      0.65722493	     -2.33640585	     -0.03380044	      0.87410916	     -2.48243122	     -0.02990186	      1.59797669	     -2.48243122	     -0.02080153	      1.59797669	     -2.04435512	     -0.01690113	      1.34021308	     -1.89832976	     -0.01039986	      1.01804142	     -1.75230439	     -0.13000547	      7.43465985	    -12.99438843	      0.00000000	      0.00000000	     -8.73017833	      3.29901566	    -13.62167380	    -22.41318367	    -22.77089883	    -28.88241949	     52.22848180	     89.99559364	      0.00000000	      0.00000000	     -6.75638334	    -24.45547852	     22.50122190	     26.11505003	     89.99559364	      0.00000000	      0.00000000
      0.03333333	     -2.72756585	      3.51313931	    -72.22557705	      0.03602107	      0.98112206	     -1.35877676	      2.54844872	      6.09505295	    -36.94699683	     24.74569560	      0.43189386	     27.33310444	    -10.83591560	      0.00000000	     30.84375734	     14.95365912	     29.60045003	     22.05746945	      0.38497547	     -9.78683550	    -16.46564034	      0.00000000	     -0.02038626	      0.67518854	     -2.54811892	     -0.03785932	      0.89800076	     -2.70737635	     -0.03349258	      1.64165342	     -2.70737635	     -0.02329945	      1.64165342	     -2.22960405	     -0.01893068	      1.37684448	     -2.07034662	     -0.01164871	      1.04586705	     -1.91108919	     -0.14561699	      7.63786783	    -14.17187299	      0.00000000	      0.00000000	    -11.02208877	      2.24247863	     -8.49628691	    -21.55780657	    -24.49820852	    -25.52474511	     54.22350124	     89.99559364	      0.00000000	      0.00000000	     -7.25302334	    -24.74925787	     21.79020171	     24.97746681	     89.99559364	      0.00000000	      0.00000000
      0.05000000	     -3.68986450	      2.64223707	    -73.63229792	      0.03134832	      0.98115669	     -1.34868785	      1.00064707	      8.05089306	    -35.19037264	     23.67753074	      0.41325087	     26.64969826	    -10.69389336	      0.00000000	     31.53420900	     12.15563826	     21.03648569	     25.61326488	      0.44703580	     -5.90705395	     -7.11803529	      0.00000000	     -0.02094932	      0.67942518	     -2.67767653	     -0.03890498	      0.90363548	     -2.84503131	     -0.03441764	      1.65195437	     -2.84503131	     -0.02394298	      1.65195437	     -2.34296696	     -0.01945354	      1.38548382	     -2.17561218	     -0.01197044	      1.05242960	     -2.00825740	     -0.14963891	      7.68579348	    -14.89243356	      0.00000000	      0.00000000	    -12.86860526	      1.74094328	     -4.28053353	    -20.92495366	    -25.91551145	    -22.84695827	     56.07696773	     89.99559364	      0.00000000	      0.00000000	     -7.34104807	    -25.19041672	     21.15516717	     23.90650206	     89.99559364	      0.00000000	      0.00000000
      0.06666667	     -4.53111308	      2.04004696	    -74.63124736	      0.02694753	      0.98144522	     -1.33807143	     -0.37235542	      9.76624942	    -33.44663394	     22.64475309	      0.39522550	     25.93683849	    -10.95748057	      0.00000000	     32.18753273	      9.26818677	     13.06942631	     28.77375082	      0.50219669	     -3.60278574	      1.84594220	      0.00000000	     -0.02218823	      0.65248912	     -2.59642830	     -0.04120576	      0.86781053	     -2.75870507	     -0.03645304	      1.58646205	     -2.75870507	     -0.02535893	      1.58646205	     -2.27187476	     -0.02060399	      1.33055581	     -2.10959799	     -0.01267835	      1.01070565	     -1.94732122	     -0.15848830	      7.38108742	    -14.44055526	      0.00000000	      0.00000000	    -13.98869397	      1.92057449	     -2.64081989	    -21.17712046	    -26.61061911	    -22.17351797	     57.83134556	     89.99559364	      0.00000000	      0.00000000	     -6.59749031	    -25.70797446	     20.77644093	     23.00632782	     89.99559364	      0.00000000	      0.00000000
      0.08333333	     -5.26239222	      1.82306995	    -75.30222967	      0.02316704	      0.98199728	     -1.32669153	     -1.37674281	     11.13997571	    -32.01197607	     21.80058117	      0.38049192	     25.18316716	    -11.36920951	      0.00000000	     32.59855886	      7.08424355	      8.42322207	     31.09976696	      0.54279333	     -2.52071316	      6.48048512	      0.00000000	     -0.02100596	      0.59851506	     -2.29107193	     -0.03901017	      0.79602502	     -2.43426392	     -0.03451069	      1.45522951	     -2.43426392	     -0.02400771	      1.45522951	     -2.00468794	     -0.01950613	      1.22049190	     -1.86149594	     -0.01200280	      0.92709982	     -1.71830394	     -0.15004346	      6.77052201	    -12.74225473	      0.00000000	      0.00000000	    -14.42511019	      2.72116484	     -2.94981640	    -22.43851434	    -26.60312033	    -23.60299678	     59.62091413	     89.99559364	      0.00000000	      0.00000000	     -5.19886071	    -26.19750911	     20.22955616	     22.63508044	     89.99559364	      0.00000000	      0.00000000
      0.10000000	     -5.92807972	      1.95605991	    -75.51966832	      0.02029400	      0.98260281	     -1.31448524	     -1.93768569	     12.13718093	    -31.49801192	     21.42862962	      0.37400014	     24.54319843	    -11.17514874	      0.00000000	     32.90117388	      5.92980642	      7.21599101	     32.65384003	      0.56991702	     -1.66203760	      7.28633134	      0.00000000	     -0.01798596	      0.52630667	     -1.91942110	     -0.03340172	      0.69998787	     -2.03938491	     -0.02954913	      1.27966203	     -2.03938491	     -0.02055615	      1.27966203	     -1.67949346	     -0.01670176	      1.07324456	     -1.55952964	     -0.01027718	      0.81524903	     -1.43956582	     -0.12847189	      5.95368629	    -10.67524431	      0.00000000	      0.00000000	    -14.38991116	      3.43747272	     -3.89371235	    -24.29455543	    -26.21640807	    -26.21509492	     61.57359800	     89.99559364	      0.00000000	      0.00000000	     -3.77493378	    -26.69739883	     19.45128056	     23.12203212	     89.99559364	      0.00000000	      0.00000000
      0.11666667	     -6.40492446	      2.34497771	    -75.61050655	      0.01749454	      0.98315275	     -1.30149623	     -1.94620673	     12.61531536	    -31.44194314	     22.06871565	      0.38517175	     23.95719020	    -11.05349057	      0.00000000	     33.13504228	      5.38701125	      7.51117230	     33.60287630	      0.58648083	     -0.32830591	      7.07167647	      0.00000000	     -0.01662202	      0.41591944	     -1.65068806	     -0.03086875	      0.55317286	     -1.75385607	     -0.02730832	      1.01126653	     -1.75385607	     -0.01899731	      1.01126653	     -1.44435206	     -0.01543521	      0.84814293	     -1.34118405	     -0.00949782	      0.64425922	     -1.23801605	     -0.11872943	      4.70496393	     -9.18063181	      0.00000000	      0.00000000	    -14.03212011	      4.11367701	     -4.93914613	    -25.82320997	    -25.96125636	    -28.16476385	     63.72991218	     89.99559364	      0.00000000	      0.00000000	     -3.22130493	    -27.48845885	     18.38837298	     24.46640239	     89.99559364	      0.00000000	      0.00000000
      0.13333333	     -6.80704252	      2.88445913	    -75.96857988	      0.01436694	      0.98367117	     -1.28816108	     -1.44512478	     12.58473789	    -31.76151314	     23.89797631	      0.41709837	     23.28185538	    -10.53086576	      0.00000000	     33.30416578	      5.48181151	     10.13708036	     34.24971364	      0.59777027	      1.00890962	      3.76339461	      0.00000000	     -0.01602789	      0.28101189	     -1.52568739	     -0.02976540	      0.37374581	     -1.62104285	     -0.02633222	      0.68325231	     -1.62104285	     -0.01831828	      0.68325231	     -1.33497647	     -0.01488350	      0.57303945	     -1.23962100	     -0.00915834	      0.43528742	     -1.14426554	     -0.11448563	      3.17886271	     -8.48541556	      0.00000000	      0.00000000	    -12.42371613	      5.52011977	     -7.34388967	    -26.41035453	    -25.99041882	    -29.27237676	     65.84944340	     89.99559364	      0.00000000	      0.00000000	     -4.30514227	    -27.92287931	     12.92530206	     26.42571944	     89.99559364	      0.00000000	      0.00000000
      0.15000000	     -7.31351943	      3.31537928	    -75.96321079	      0.01156662	      0.98385458	     -1.27532222	     -0.48321585	     12.21241157	    -32.91996978	     27.09385672	      0.47287701	     22.65148216	     -9.25601339	      0.00000000	     33.32303971	      5.84274021	     13.98598558	     34.86088670	      0.60843725	      2.92564163	      0.15448907	      0.00000000	     -0.01590574	      0.15235963	     -1.72994762	     -0.02953855	      0.20263830	     -1.83806935	     -0.02613154	      0.37044719	     -1.83806935	     -0.01817867	      0.37044719	     -1.51370417	     -0.01477007	      0.31069175	     -1.40558244	     -0.00908854	      0.23600506	     -1.29746072	     -0.11361312	      1.72352256	     -9.62144970	      0.00000000	      0.00000000	    -12.22575479	      5.41885915	     -6.66399046	    -25.88823761	    -27.24210266	    -28.20063952	     68.10017795	     89.99559364	      0.00000000	      0.00000000	     -7.09767128	    -27.51504187	      2.26704567	     28.87744044	     89.99559364	      0.00000000	      0.00000000
